<svg class="h-6 w-6" xmlns="http://www.w3.org/2000/svg" viewBox="0 0 1024 1024">
    <path fill="#ff5913" fill-rule="evenodd" class="cls-1" d="M169.2,789.523H576.546a16.063,16.063,0,0,1,16.063,16.064v49.005a16.063,16.063,0,0,1-16.063,16.063H169.2a16.064,16.064,0,0,1-16.064-16.063v-49A16.064,16.064,0,0,1,169.2,789.523Z"></path>
    <path fill="#ff5913" fill-rule="evenodd" class="cls-1" d="M169.184,472.208H324.213a16.05,16.05,0,0,1,16.05,16.05v48.783a16.05,16.05,0,0,1-16.05,16.05H169.184a16.05,16.05,0,0,1-16.05-16.05V488.258A16.05,16.05,0,0,1,169.184,472.208Z"></path>
    <path fill="#1bd8ff" fill-rule="evenodd" class="cls-2" d="M169.2,153.009H281.289a16.064,16.064,0,0,1,16.064,16.064v48.934a16.064,16.064,0,0,1-16.064,16.063H169.2a16.064,16.064,0,0,1-16.064-16.063V169.073A16.064,16.064,0,0,1,169.2,153.009Z"></path>
    <path fill="#1bd8ff" fill-rule="evenodd" class="cls-2" d="M169.17,629.285H396.479a16.035,16.035,0,0,1,16.035,16.035v48.813a16.035,16.035,0,0,1-16.035,16.035H169.17a16.036,16.036,0,0,1-16.036-16.035V645.32A16.036,16.036,0,0,1,169.17,629.285Z"></path>
    <path fill="#00d578" fill-rule="evenodd" class="cls-3" d="M397.531,153.009H837.453a16.064,16.064,0,0,1,16.064,16.064v48.934a16.064,16.064,0,0,1-16.064,16.063H397.531a16.063,16.063,0,0,1-16.063-16.063V169.073A16.064,16.064,0,0,1,397.531,153.009Z"></path>
    <path fill="#00d578" fill-rule="evenodd" class="cls-3" d="M438.723,472.208H549.065a16.05,16.05,0,0,1,16.051,16.05v48.783a16.05,16.05,0,0,1-16.051,16.05H438.723a16.05,16.05,0,0,1-16.05-16.05V488.258A16.05,16.05,0,0,1,438.723,472.208Z"></path>
    <path fill="#ffc113" fill-rule="evenodd" class="cls-4" d="M169.2,311.756H513.033A16.063,16.063,0,0,1,529.1,327.819v48.934a16.063,16.063,0,0,1-16.063,16.064H169.2a16.064,16.064,0,0,1-16.064-16.064V327.819A16.064,16.064,0,0,1,169.2,311.756Z"></path>
    <path fill="#ffc113" fill-rule="evenodd" class="cls-4" d="M510.782,629.285H854.745A16.035,16.035,0,0,1,870.78,645.32v48.813a16.035,16.035,0,0,1-16.035,16.035H510.782a16.035,16.035,0,0,1-16.035-16.035V645.32A16.035,16.035,0,0,1,510.782,629.285Z"></path>
</svg>